<svg width="29" height="29" viewBox="0 0 29 29" fill="none" xmlns="http://www.w3.org/2000/svg">
<path d="M17.0812 4.06176L16.0862 4.16126V4.16126L17.0812 4.06176ZM16.7715 2.76647L17.5312 2.11626L17.5312 2.11626L16.7715 2.76647ZM17.682 6.33274L17.1345 7.1695L17.1345 7.16951L17.682 6.33274ZM18.0251 6.47484L17.8206 7.45371H17.8206L18.0251 6.47484ZM20.0558 5.29389L19.4225 4.51993V4.51993L20.0558 5.29389ZM21.1907 4.59701L21.2682 5.59401H21.2682L21.1907 4.59701ZM21.4444 4.60967L21.2682 5.59401L21.4444 4.60967ZM22.5044 5.41601L23.2115 4.7089V4.7089L22.5044 5.41601ZM24.3903 7.55557L23.406 7.73185V7.73185L24.3903 7.55557ZM24.403 7.80929L25.4 7.88675V7.88673L24.403 7.80929ZM23.7061 8.94423L24.4801 9.57746L23.7061 8.94423ZM22.5251 10.9749L23.504 10.7704V10.7704L22.5251 10.9749ZM22.6672 11.318L23.504 10.7704L23.504 10.7704L22.6672 11.318ZM24.9383 11.9188L25.0378 10.9238H25.0378L24.9383 11.9188ZM26.2336 12.2286L25.5834 12.9883L25.5834 12.9883L26.2336 12.2286ZM26.404 12.4169L27.2247 11.8455L27.2247 11.8455L26.404 12.4169ZM26.4041 16.583L25.5834 16.0117L25.5834 16.0117L26.4041 16.583ZM26.2335 16.7715L26.8836 17.5313L26.2335 16.7715ZM24.9384 17.0812L25.0379 18.0762H25.0379L24.9384 17.0812ZM22.6678 17.6818L21.8312 17.1341V17.1341L22.6678 17.6818ZM22.5255 18.0253L21.5466 17.821V17.821L22.5255 18.0253ZM23.7063 20.0554L22.9323 20.6887L22.9323 20.6887L23.7063 20.0554ZM24.403 21.19L25.4 21.1124L25.4 21.1124L24.403 21.19ZM24.3904 21.4441L23.406 21.2676L23.406 21.2677L24.3904 21.4441ZM21.4445 24.3898L21.2682 23.4055H21.2682L21.4445 24.3898ZM21.1907 24.4025L21.2682 23.4055L21.2682 23.4055L21.1907 24.4025ZM20.0558 23.7056L19.3487 24.4127L19.384 24.448L19.4226 24.4796L20.0558 23.7056ZM20.0558 23.7056L20.7629 22.9985L20.7277 22.9632L20.6891 22.9317L20.0558 23.7056ZM18.0252 22.5247L17.8207 21.5458H17.8207L18.0252 22.5247ZM17.6821 22.6668L18.2297 23.5035L18.2297 23.5035L17.6821 22.6668ZM17.0812 24.938L16.0862 24.8385L17.0812 24.938ZM16.7714 26.2337L17.531 26.884L17.531 26.884L16.7714 26.2337ZM16.5832 26.404L17.1547 27.2246L17.1547 27.2246L16.5832 26.404ZM12.4169 26.404L12.9883 25.5834L12.9883 25.5833L12.4169 26.404ZM12.2286 26.2336L11.4689 26.8838L11.4689 26.8838L12.2286 26.2336ZM11.9188 24.9383L12.9139 24.8388L11.9188 24.9383ZM11.318 22.6672L10.7704 23.504L10.7704 23.504L11.318 22.6672ZM10.975 22.5251L11.1795 21.5463L10.975 22.5251ZM8.94419 23.7061L8.31096 22.9322H8.31096L8.94419 23.7061ZM7.80922 24.403L7.73179 23.406L7.73177 23.406L7.80922 24.403ZM7.55554 24.3904L7.37928 25.3747L7.3793 25.3747L7.55554 24.3904ZM6.49555 23.584L5.78844 24.2911L5.78844 24.2911L6.49555 23.584ZM5.41597 22.5044L6.12308 21.7973L6.12308 21.7973L5.41597 22.5044ZM4.60961 21.4445L3.62527 21.6207L3.62527 21.6207L4.60961 21.4445ZM4.59696 21.1908L3.59996 21.1133H3.59996L4.59696 21.1908ZM5.29385 20.0558L4.5199 19.4226H4.5199L5.29385 20.0558ZM6.47483 18.0251L5.49596 18.2296L5.49596 18.2296L6.47483 18.0251ZM6.33273 17.682L7.1695 17.1345L7.1695 17.1345L6.33273 17.682ZM4.06176 17.0812L4.16126 16.0862L4.11164 16.0812H4.06176V17.0812ZM4.06175 17.0812L3.96225 18.0762L4.01187 18.0812H4.06175V17.0812ZM2.76648 16.7715L3.41669 16.0117L3.41669 16.0117L2.76648 16.7715ZM2.59601 16.5831L1.77532 17.1545H1.77532L2.59601 16.5831ZM2.41669 15.2634H3.41669H2.41669ZM2.41669 13.7368H1.41669H2.41669ZM2.59608 12.4169L3.41669 12.9883L3.41669 12.9883L2.59608 12.4169ZM2.76638 12.2287L2.11608 11.469H2.11608L2.76638 12.2287ZM4.06189 11.9188V10.9188H4.01201L3.96238 10.9238L4.06189 11.9188ZM4.0619 11.9188V12.9188H4.11177L4.1614 12.9139L4.0619 11.9188ZM6.33329 11.3178L7.17015 11.8652L7.17015 11.8652L6.33329 11.3178ZM6.47525 10.9751L5.49642 10.7704L5.49642 10.7704L6.47525 10.9751ZM5.29406 8.94388L6.06802 8.31065L5.29406 8.94388ZM4.597 7.80857L5.59401 7.7313V7.7313L4.597 7.80857ZM4.60964 7.5552L3.62526 7.3791L3.62526 7.3791L4.60964 7.5552ZM5.41617 6.49492L4.70907 5.78781L4.70907 5.78781L5.41617 6.49492ZM6.4956 5.41549L5.8956 4.61549L5.83875 4.65813L5.7885 4.70838L6.4956 5.41549ZM6.4956 5.41549L7.09561 6.21549L7.15246 6.17285L7.20271 6.12259L6.4956 5.41549ZM7.55559 4.60912L7.37934 3.62477L7.55559 4.60912ZM7.80928 4.59646L7.73184 5.59346L7.73185 5.59346L7.80928 4.59646ZM8.94434 5.29344L8.3111 6.0674L8.32744 6.08077L8.34434 6.09344L8.94434 5.29344ZM8.94434 5.29344L9.57758 4.51948L9.56124 4.50611L9.54434 4.49344L8.94434 5.29344ZM10.9748 6.4744L10.7705 5.4955L10.7705 5.4955L10.9748 6.4744ZM11.3182 6.33217L11.8659 7.16884L11.8659 7.16884L11.3182 6.33217ZM11.9189 4.0616L12.9139 4.1611V4.1611L11.9189 4.0616ZM12.2285 2.76657L12.9883 3.41669L12.9883 3.41669L12.2285 2.76657ZM12.4171 2.59593L11.8458 1.77518L11.8458 1.77518L12.4171 2.59593ZM16.5831 2.59601L16.0117 3.41669L16.0117 3.41669L16.5831 2.59601ZM18.0762 3.96226C18.0432 3.63169 18.0118 3.3049 17.9552 3.03438C17.8944 2.74402 17.7856 2.41347 17.5312 2.11626L16.0117 3.41669C15.9614 3.35791 15.9722 3.32273 15.9976 3.44425C16.0273 3.58563 16.0488 3.78726 16.0862 4.16126L18.0762 3.96226ZM18.2296 5.49597C18.3651 5.58466 18.325 5.67904 18.2571 5.37998C18.1906 5.08748 18.146 4.65963 18.0762 3.96225L16.0862 4.16126C16.1504 4.80341 16.2062 5.3802 16.3067 5.82289C16.4058 6.25901 16.599 6.81911 17.1345 7.1695L18.2296 5.49597ZM18.2296 5.49597L18.2296 5.49597L17.1345 7.16951C17.3434 7.30624 17.5762 7.40264 17.8206 7.45371L18.2296 5.49597ZM19.4225 4.51993C18.8801 4.96373 18.546 5.23469 18.2922 5.39454C18.0327 5.55799 18.0711 5.46285 18.2296 5.49597L17.8206 7.45371C18.447 7.58457 18.9797 7.32518 19.3581 7.08683C19.7422 6.84489 20.1896 6.4765 20.689 6.06784L19.4225 4.51993ZM21.1132 3.60002C20.7232 3.63032 20.4125 3.78709 20.1642 3.94941C19.9329 4.10064 19.6797 4.30956 19.4225 4.51993L20.689 6.06784C20.9799 5.82983 21.1377 5.70247 21.2586 5.62344C21.3625 5.5555 21.3453 5.58802 21.2682 5.59401L21.1132 3.60002ZM21.6207 3.62533C21.4533 3.59535 21.2828 3.58684 21.1132 3.60002L21.2682 5.59401L21.2682 5.59401L21.6207 3.62533ZM23.2115 4.7089C22.9766 4.474 22.7454 4.24092 22.5302 4.06742C22.2993 3.88119 22.0058 3.69429 21.6207 3.62533L21.2682 5.59401C21.192 5.58037 21.1781 5.5463 21.2747 5.62424C21.3872 5.71491 21.5315 5.85734 21.7973 6.12312L23.2115 4.7089ZM24.2911 5.78851L23.2115 4.7089L21.7973 6.12312L22.8769 7.20272L24.2911 5.78851ZM25.3747 7.3793C25.3057 6.99423 25.1188 6.70068 24.9326 6.46975C24.7591 6.25461 24.526 6.02342 24.2911 5.78851L22.8769 7.20272C23.1427 7.46851 23.2851 7.61283 23.3758 7.72526C23.4537 7.82191 23.4196 7.80799 23.406 7.73185L25.3747 7.3793ZM25.4 7.88673C25.4132 7.71721 25.4047 7.54669 25.3747 7.37929L23.406 7.73185L23.406 7.73186L25.4 7.88673ZM24.4801 9.57746C24.6904 9.32035 24.8994 9.06711 25.0506 8.83577C25.2129 8.58746 25.3697 8.27677 25.4 7.88675L23.406 7.73184C23.412 7.65472 23.4445 7.63747 23.3766 7.7414C23.2975 7.8623 23.1702 8.02008 22.9321 8.31099L24.4801 9.57746ZM23.504 10.7704C23.5371 10.929 23.442 10.9673 23.6054 10.7078C23.7653 10.454 24.0362 10.1199 24.4801 9.57746L22.9321 8.31099C22.5235 8.81047 22.1551 9.25779 21.9131 9.64191C21.6748 10.0203 21.4154 10.5531 21.5463 11.1795L23.504 10.7704ZM23.504 10.7704L23.504 10.7704L21.5463 11.1795C21.5973 11.4239 21.6937 11.6566 21.8304 11.8655L23.504 10.7704ZM25.0378 10.9238C24.3404 10.8541 23.9125 10.8094 23.62 10.743C23.3209 10.6751 23.4153 10.6349 23.504 10.7704L21.8304 11.8655C22.1808 12.401 22.741 12.5943 23.1771 12.6933C23.6198 12.7939 24.1966 12.8497 24.8387 12.9139L25.0378 10.9238ZM26.8838 11.4689C26.5866 11.2145 26.256 11.1056 25.9657 11.0448C25.6951 10.9882 25.3683 10.9569 25.0378 10.9238L24.8387 12.9139C25.2128 12.9513 25.4144 12.9728 25.5558 13.0024C25.6773 13.0278 25.6421 13.0386 25.5834 12.9883L26.8838 11.4689ZM27.2247 11.8455C27.1275 11.706 27.013 11.5794 26.8838 11.4689L25.5834 12.9883V12.9883L27.2247 11.8455ZM27.5834 13.7366C27.5834 13.4044 27.5847 13.0761 27.5552 12.8013C27.5236 12.5063 27.4482 12.1666 27.2247 11.8455L25.5834 12.9883C25.5392 12.9249 25.5534 12.8909 25.5666 13.0144C25.582 13.158 25.5834 13.3608 25.5834 13.7366H27.5834ZM27.5834 15.2635V13.7366H25.5834V15.2635H27.5834ZM27.2248 17.1543C27.4483 16.8333 27.5237 16.4936 27.5553 16.1987C27.5847 15.9239 27.5834 15.5957 27.5834 15.2635H25.5834C25.5834 15.6393 25.582 15.8421 25.5666 15.9857C25.5534 16.1091 25.5392 16.0752 25.5834 16.0117L27.2248 17.1543ZM26.8836 17.5313C27.0129 17.4207 27.1276 17.294 27.2248 17.1543L25.5834 16.0117L25.5834 16.0117L26.8836 17.5313ZM25.0379 18.0762C25.3684 18.0432 25.6951 18.0118 25.9656 17.9552C26.2559 17.8944 26.5864 17.7856 26.8836 17.5313L25.5834 16.0117C25.6421 15.9614 25.6773 15.9722 25.5558 15.9977C25.4144 16.0272 25.2128 16.0488 24.8389 16.0861L25.0379 18.0762ZM23.5045 18.2296C23.4157 18.3651 23.3214 18.3249 23.6204 18.257C23.9129 18.1906 24.3406 18.1459 25.0379 18.0762L24.8389 16.0861C24.1969 16.1503 23.6202 16.2061 23.1776 16.3066C22.7416 16.4056 22.1816 16.5988 21.8312 17.1341L23.5045 18.2296ZM23.5045 18.2296V18.2296L21.8312 17.1341C21.6942 17.3432 21.5977 17.5763 21.5466 17.821L23.5045 18.2296ZM24.4802 19.4222C24.0366 18.8799 23.7657 18.5459 23.6059 18.2922C23.4424 18.0327 23.5375 18.071 23.5045 18.2296L21.5466 17.821C21.4159 18.4473 21.6753 18.9798 21.9136 19.3581C22.1555 19.7421 22.5238 20.1893 22.9323 20.6887L24.4802 19.4222ZM25.4 21.1124C25.3697 20.7225 25.2129 20.4119 25.0506 20.1637C24.8994 19.9324 24.6906 19.6792 24.4802 19.4222L22.9323 20.6887C23.1703 20.9795 23.2976 21.1372 23.3766 21.2581C23.4446 21.362 23.412 21.3448 23.406 21.2677L25.4 21.1124ZM25.3747 21.6205C25.4047 21.4529 25.4132 21.2822 25.4 21.1124L23.406 21.2676H23.406L25.3747 21.6205ZM24.2913 23.2108C24.5261 22.976 24.7591 22.7449 24.9326 22.5298C25.1188 22.2989 25.3057 22.0055 25.3747 21.6205L23.406 21.2677C23.4197 21.1915 23.4537 21.1776 23.3758 21.2742C23.2852 21.3866 23.1428 21.5309 22.8771 21.7966L24.2913 23.2108ZM23.2115 24.2906L24.2913 23.2108L22.8771 21.7966L21.7973 22.8764L23.2115 24.2906ZM21.6208 25.3742C22.0058 25.3052 22.2994 25.1183 22.5303 24.9321C22.7454 24.7586 22.9766 24.5255 23.2115 24.2906L21.7973 22.8764C21.5315 23.1422 21.3872 23.2846 21.2748 23.3753C21.1781 23.4532 21.1921 23.4191 21.2682 23.4055L21.6208 25.3742ZM21.1133 25.3995C21.2828 25.4127 21.4534 25.4042 21.6208 25.3742L21.2682 23.4055L21.2682 23.4055L21.1133 25.3995ZM19.4226 24.4796C19.6797 24.6899 19.933 24.8989 20.1643 25.0501C20.4126 25.2124 20.7233 25.3692 21.1133 25.3995L21.2682 23.4055C21.3453 23.4115 21.3626 23.444 21.2587 23.3761C21.1378 23.297 20.98 23.1697 20.6891 22.9317L19.4226 24.4796ZM19.3487 24.4127L19.3487 24.4127L20.763 22.9985L20.7629 22.9985L19.3487 24.4127ZM18.2297 23.5035C18.0711 23.5367 18.0328 23.4415 18.2923 23.605C18.5461 23.7648 18.8802 24.0358 19.4226 24.4796L20.6891 22.9317C20.1896 22.523 19.7423 22.1546 19.3582 21.9127C18.9798 21.6743 18.447 21.4149 17.8207 21.5458L18.2297 23.5035ZM18.2297 23.5035L18.2297 23.5035L17.8207 21.5458C17.5762 21.5969 17.3435 21.6933 17.1345 21.83L18.2297 23.5035ZM18.0763 25.0375C18.146 24.34 18.1907 23.9121 18.2571 23.6196C18.325 23.3204 18.3652 23.4148 18.2297 23.5035L17.1345 21.83C16.5991 22.1804 16.4058 22.7406 16.3068 23.1767C16.2062 23.6194 16.1504 24.1963 16.0862 24.8385L18.0763 25.0375ZM17.531 26.884C17.7855 26.5867 17.8944 26.2561 17.9552 25.9657C18.0118 25.6951 18.0432 25.3682 18.0763 25.0375L16.0862 24.8385C16.0488 25.2126 16.0273 25.4143 15.9976 25.5558C15.9722 25.6774 15.9614 25.6421 16.0117 25.5834L17.531 26.884ZM17.1547 27.2246C17.2941 27.1275 17.4206 27.013 17.531 26.884L16.0117 25.5833L16.0117 25.5834L17.1547 27.2246ZM15.2632 27.5834C15.5955 27.5834 15.9239 27.5847 16.1988 27.5552C16.4938 27.5236 16.8336 27.4482 17.1547 27.2246L16.0117 25.5834C16.0752 25.5391 16.1091 25.5534 15.9857 25.5666C15.842 25.582 15.6392 25.5834 15.2632 25.5834V27.5834ZM13.7366 27.5834H15.2632V25.5834H13.7366V27.5834ZM11.8455 27.2247C12.1666 27.4482 12.5063 27.5236 12.8013 27.5552C13.0761 27.5847 13.4044 27.5834 13.7366 27.5834V25.5834C13.3608 25.5834 13.158 25.582 13.0144 25.5666C12.8909 25.5534 12.9249 25.5392 12.9883 25.5834L11.8455 27.2247ZM11.4689 26.8838C11.5794 27.013 11.706 27.1275 11.8455 27.2247L12.9883 25.5833L12.9883 25.5833L11.4689 26.8838ZM10.9238 25.0378C10.9569 25.3683 10.9882 25.6951 11.0448 25.9657C11.1056 26.256 11.2145 26.5866 11.4689 26.8838L12.9883 25.5834C13.0386 25.6421 13.0278 25.6773 13.0024 25.5558C12.9728 25.4144 12.9513 25.2128 12.9139 24.8388L10.9238 25.0378ZM10.7704 23.504C10.6349 23.4153 10.6751 23.3209 10.743 23.62C10.8094 23.9125 10.8541 24.3404 10.9238 25.0378L12.9139 24.8388C12.8497 24.1966 12.7939 23.6198 12.6933 23.1771C12.5943 22.7409 12.401 22.1808 11.8655 21.8304L10.7704 23.504ZM10.7704 23.504L10.7704 23.504L11.8655 21.8304C11.6566 21.6937 11.4239 21.5974 11.1795 21.5463L10.7704 23.504ZM9.57743 24.4801C10.1199 24.0363 10.454 23.7653 10.7078 23.6054C10.9673 23.442 10.929 23.5371 10.7704 23.504L11.1795 21.5463C10.5531 21.4154 10.0203 21.6748 9.64191 21.9131C9.25778 22.1551 8.81045 22.5235 8.31096 22.9322L9.57743 24.4801ZM7.88665 25.4C8.27668 25.3697 8.58739 25.213 8.83571 25.0506C9.06706 24.8994 9.32031 24.6905 9.57743 24.4801L8.31096 22.9322C8.02004 23.1702 7.86225 23.2976 7.74135 23.3766C7.63742 23.4446 7.65466 23.412 7.73179 23.406L7.88665 25.4ZM7.3793 25.3747C7.54664 25.4047 7.71714 25.4132 7.88667 25.4L7.73177 23.406L7.73178 23.406L7.3793 25.3747ZM5.78844 24.2911C6.02336 24.526 6.25456 24.7591 6.46971 24.9326C6.70064 25.1189 6.9942 25.3058 7.37928 25.3747L7.73179 23.406C7.80794 23.4197 7.82186 23.4538 7.72521 23.3758C7.61277 23.2851 7.46844 23.1427 7.20265 22.8769L5.78844 24.2911ZM4.70887 23.2115L5.78844 24.2911L7.20265 22.8769L6.12308 21.7973L4.70887 23.2115ZM3.62527 21.6207C3.69422 22.0058 3.88113 22.2994 4.06736 22.5303C4.24087 22.7454 4.47396 22.9766 4.70887 23.2115L6.12308 21.7973C5.85729 21.5315 5.71486 21.3872 5.62419 21.2748C5.54624 21.1781 5.58032 21.1921 5.59395 21.2682L3.62527 21.6207ZM3.59996 21.1133C3.58679 21.2828 3.5953 21.4534 3.62527 21.6207L5.59395 21.2682L5.59395 21.2682L3.59996 21.1133ZM4.5199 19.4226C4.30952 19.6797 4.1006 19.9329 3.94936 20.1643C3.78703 20.4126 3.63026 20.7233 3.59996 21.1133L5.59395 21.2682C5.58796 21.3453 5.55544 21.3626 5.62338 21.2586C5.70242 21.1377 5.82979 20.98 6.06781 20.689L4.5199 19.4226ZM5.49596 18.2296C5.46284 18.071 5.55798 18.0327 5.39453 18.2922C5.23467 18.546 4.96371 18.8801 4.5199 19.4226L6.06781 20.689C6.47647 20.1896 6.84487 19.7423 7.08681 19.3581C7.32517 18.9797 7.58456 18.447 7.45369 17.8206L5.49596 18.2296ZM5.49596 18.2296H5.49596L7.45369 17.8206C7.40263 17.5762 7.30623 17.3434 7.1695 17.1345L5.49596 18.2296ZM3.96225 18.0762C4.65963 18.146 5.08748 18.1906 5.37997 18.257C5.67903 18.325 5.58465 18.3651 5.49596 18.2296L7.1695 17.1345C6.81911 16.599 6.25901 16.4058 5.82289 16.3067C5.3802 16.2062 4.80341 16.1504 4.16126 16.0862L3.96225 18.0762ZM4.06175 18.0812H4.06176V16.0812H4.06175V18.0812ZM2.11626 17.5312C2.41347 17.7856 2.74402 17.8944 3.03438 17.9552C3.30489 18.0118 3.63169 18.0432 3.96225 18.0762L4.16125 16.0862C3.78725 16.0488 3.58563 16.0272 3.44425 15.9976C3.32273 15.9722 3.35792 15.9614 3.41669 16.0117L2.11626 17.5312ZM1.77532 17.1545C1.87249 17.294 1.98706 17.4206 2.11627 17.5312L3.41669 16.0117H3.41669L1.77532 17.1545ZM1.41669 15.2634C1.41669 15.5956 1.41535 15.9239 1.44479 16.1987C1.47639 16.4937 1.5518 16.8334 1.77532 17.1545L3.41669 16.0117C3.46089 16.0752 3.44664 16.1091 3.43341 15.9857C3.41802 15.8421 3.41669 15.6393 3.41669 15.2634H1.41669ZM1.41669 13.7368L1.41669 15.2634H3.41669L3.41669 13.7368H1.41669ZM1.77546 11.8454C1.55186 12.1664 1.47642 12.5062 1.4448 12.8013C1.41535 13.0761 1.41669 13.4045 1.41669 13.7368H3.41669C3.41669 13.3608 3.41803 13.158 3.43342 13.0144C3.44665 12.8909 3.4609 12.9248 3.41669 12.9883L1.77546 11.8454ZM2.11608 11.469C1.98702 11.5795 1.87256 11.7059 1.77546 11.8454L3.41669 12.9883L3.41669 12.9883L2.11608 11.469ZM3.96238 10.9238C3.63176 10.9569 3.3049 10.9882 3.03434 11.0449C2.74392 11.1057 2.41331 11.2146 2.11608 11.469L3.41669 12.9883C3.35791 13.0387 3.32271 13.0278 3.44426 13.0024C3.58565 12.9728 3.78732 12.9513 4.16139 12.9139L3.96238 10.9238ZM4.0619 10.9188H4.06189V12.9188H4.0619V10.9188ZM5.49642 10.7704C5.5851 10.6348 5.67952 10.675 5.38041 10.7429C5.08786 10.8094 4.65992 10.854 3.9624 10.9238L4.1614 12.9139C4.80368 12.8496 5.38059 12.7938 5.82336 12.6933C6.25957 12.5942 6.81978 12.4008 7.17015 11.8652L5.49642 10.7704ZM5.49642 10.7704L5.49642 10.7704L7.17015 11.8652C7.30672 11.6564 7.40301 11.4239 7.45408 11.1797L5.49642 10.7704ZM4.52011 9.57712C4.96403 10.1197 5.23506 10.4539 5.39495 10.7078C5.55844 10.9673 5.46326 10.929 5.49642 10.7704L7.45408 11.1798C7.58508 10.5532 7.32565 10.0204 7.08726 9.64188C6.84527 9.25767 6.47679 8.81025 6.06802 8.31065L4.52011 9.57712ZM3.59999 7.88585C3.63023 8.276 3.78703 8.5868 3.9494 8.83519C4.10067 9.0666 4.30967 9.31992 4.52011 9.57712L6.06802 8.31065C5.82992 8.01964 5.70251 7.8618 5.62345 7.74086C5.55549 7.63689 5.58803 7.65415 5.59401 7.7313L3.59999 7.88585ZM3.62526 7.3791C3.59536 7.54626 3.58687 7.71655 3.59999 7.88585L5.59401 7.7313L5.59401 7.7313L3.62526 7.3791ZM4.70907 5.78781C4.47409 6.02279 4.24094 6.25405 4.06739 6.46926C3.88111 6.70025 3.69417 6.99391 3.62526 7.3791L5.59401 7.7313C5.58038 7.80747 5.54629 7.8214 5.62425 7.72472C5.71495 7.61225 5.85742 7.46789 6.12328 7.20203L4.70907 5.78781ZM5.7885 4.70838L4.70907 5.78781L6.12328 7.20203L7.20271 6.1226L5.7885 4.70838ZM5.89561 4.61549L5.8956 4.61549L7.0956 6.21549L7.09561 6.21549L5.89561 4.61549ZM7.37934 3.62477C6.99426 3.69372 6.70069 3.88063 6.46976 4.06687C6.25461 4.24037 6.02341 4.47347 5.7885 4.70838L7.20271 6.12259C7.4685 5.8568 7.61283 5.71437 7.72527 5.62369C7.82192 5.54575 7.80799 5.57983 7.73185 5.59346L7.37934 3.62477ZM7.88671 3.59947C7.7172 3.5863 7.5467 3.5948 7.37934 3.62477L7.73185 5.59346L7.73184 5.59346L7.88671 3.59947ZM9.57758 4.51948C9.32042 4.30908 9.06715 4.10013 8.8358 3.94889C8.58748 3.78655 8.27676 3.62976 7.88671 3.59947L7.73185 5.59346C7.6547 5.58747 7.63746 5.55494 7.74142 5.6229C7.86234 5.70196 8.02015 5.82935 8.3111 6.0674L9.57758 4.51948ZM9.54434 4.49344L9.54434 4.49344L8.34434 6.09344L8.34434 6.09344L9.54434 4.49344ZM10.7705 5.4955C10.929 5.4624 10.9673 5.55753 10.7078 5.39406C10.4541 5.2342 10.12 4.96325 9.57758 4.51948L8.3111 6.0674C8.81054 6.47603 9.2578 6.84438 9.64187 7.08631C10.0202 7.32463 10.5528 7.58403 11.1791 7.4533L10.7705 5.4955ZM10.7705 5.4955L10.7705 5.4955L11.1791 7.4533C11.4238 7.40223 11.6568 7.30574 11.8659 7.16884L10.7705 5.4955ZM10.9238 3.96209C10.8541 4.65933 10.8095 5.08708 10.743 5.37952C10.6752 5.67853 10.635 5.5842 10.7705 5.4955L11.8659 7.16884C12.4012 6.81843 12.5944 6.25843 12.6934 5.82239C12.7939 5.37978 12.8497 4.80311 12.9139 4.1611L10.9238 3.96209ZM11.4687 2.11645C11.2144 2.41363 11.1056 2.74411 11.0448 3.03441C10.9882 3.30488 10.9569 3.63161 10.9238 3.96209L12.9139 4.1611C12.9513 3.78718 12.9728 3.58559 13.0024 3.44425C13.0278 3.32274 13.0386 3.35792 12.9883 3.41669L11.4687 2.11645ZM11.8458 1.77518C11.7061 1.87243 11.5793 1.98711 11.4687 2.11645L12.9883 3.41669L12.9883 3.41669L11.8458 1.77518ZM13.7365 1.41669C13.4043 1.41669 13.0761 1.41535 12.8014 1.44478C12.5064 1.47637 12.1668 1.55175 11.8458 1.77518L12.9883 3.41669C12.9249 3.46087 12.8909 3.44663 13.0144 3.4334C13.158 3.41802 13.3607 3.41669 13.7365 3.41669V1.41669ZM15.2634 1.41669H13.7365V3.41669H15.2634V1.41669ZM17.1545 1.77533C16.8334 1.55181 16.4937 1.4764 16.1987 1.44479C15.9239 1.41535 15.5956 1.41669 15.2634 1.41669V3.41669C15.6393 3.41669 15.8421 3.41802 15.9857 3.43341C16.1091 3.44664 16.0752 3.46089 16.0117 3.41669L17.1545 1.77533ZM17.5312 2.11626C17.4206 1.98706 17.294 1.87249 17.1545 1.77532L16.0117 3.41669L16.0117 3.41669L17.5312 2.11626ZM18.3334 14.5C18.3334 16.6171 16.6171 18.3334 14.5 18.3334V20.3334C17.7217 20.3334 20.3334 17.7217 20.3334 14.5H18.3334ZM14.5 10.6667C16.6171 10.6667 18.3334 12.3829 18.3334 14.5H20.3334C20.3334 11.2784 17.7217 8.66669 14.5 8.66669V10.6667ZM10.6667 14.5C10.6667 12.3829 12.3829 10.6667 14.5 10.6667V8.66669C11.2784 8.66669 8.66669 11.2784 8.66669 14.5H10.6667ZM14.5 18.3334C12.3829 18.3334 10.6667 16.6171 10.6667 14.5H8.66669C8.66669 17.7217 11.2784 20.3334 14.5 20.3334V18.3334Z" fill="#8D8D8D"/>
</svg>
