<svg width="29" height="29" viewBox="0 0 29 29" fill="none" xmlns="http://www.w3.org/2000/svg">
<path d="M2.41669 14.5L1.63582 13.8753L1.13606 14.5L1.63582 15.1247L2.41669 14.5ZM13.2917 15.5C13.844 15.5 14.2917 15.0523 14.2917 14.5C14.2917 13.9477 13.844 13.5 13.2917 13.5V15.5ZM6.46915 7.83362L1.63582 13.8753L3.19756 15.1247L8.03089 9.08301L6.46915 7.83362ZM1.63582 15.1247L6.46915 21.1663L8.03089 19.917L3.19756 13.8753L1.63582 15.1247ZM2.41669 15.5H13.2917V13.5H2.41669V15.5Z" fill="#8D8D8D"/>
<path d="M15.4257 24.7238L15.2613 25.7101L15.4257 24.7238ZM12.5573 23.7652L13.3203 23.1188L12.5573 23.7652ZM19.5969 25.419L19.4325 26.4053L19.5969 25.419ZM25.5224 25.331L24.8761 24.568L25.5224 25.331ZM19.5969 3.58109L19.4325 2.59469L19.5969 3.58109ZM25.5224 3.66901L24.8761 4.43203L25.5224 3.66901ZM12.5573 5.23486L13.3203 5.88123L12.5573 5.23486ZM15.5901 5.26268L19.7613 4.56748L19.4325 2.59469L15.2613 3.28989L15.5901 5.26268ZM25.5833 9.49945V19.5006H27.5833V9.49945H25.5833ZM19.7613 24.4326L15.5901 23.7374L15.2613 25.7101L19.4325 26.4053L19.7613 24.4326ZM13.0833 9.82611V8.22186H11.0833V9.82611H13.0833ZM13.0833 20.7782V19.4131H11.0833V20.7782H13.0833ZM15.5901 23.7374C14.7666 23.6001 14.2406 23.5106 13.8559 23.3961C13.498 23.2895 13.3843 23.1943 13.3203 23.1188L11.7943 24.4116C12.2042 24.8955 12.7265 25.1466 13.2853 25.3129C13.8173 25.4713 14.4885 25.5813 15.2613 25.7101L15.5901 23.7374ZM11.0833 20.7782C11.0833 21.5617 11.0815 22.2419 11.1503 22.7926C11.2225 23.3711 11.3843 23.9276 11.7943 24.4116L13.3203 23.1188C13.2563 23.0433 13.1811 22.9154 13.1349 22.5449C13.0851 22.1466 13.0833 21.613 13.0833 20.7782H11.0833ZM25.5833 19.5006C25.5833 21.1751 25.5809 22.3236 25.4606 23.1712C25.3443 23.9911 25.14 24.3444 24.8761 24.568L26.1688 26.0941C26.9658 25.4189 27.2919 24.501 27.4408 23.4523C27.5857 22.4312 27.5833 21.114 27.5833 19.5006H25.5833ZM19.4325 26.4053C21.0239 26.6706 22.3229 26.8895 23.3539 26.9144C24.4128 26.94 25.3719 26.7692 26.1688 26.0941L24.8761 24.568C24.6121 24.7916 24.23 24.935 23.4022 24.915C22.5464 24.8943 21.413 24.7078 19.7613 24.4326L19.4325 26.4053ZM19.7613 4.56748C21.413 4.2922 22.5464 4.10573 23.4022 4.08505C24.23 4.06505 24.6121 4.20846 24.8761 4.43203L26.1688 2.90599C25.3719 2.23086 24.4128 2.06005 23.3539 2.08563C22.3229 2.11054 21.0239 2.32946 19.4325 2.59469L19.7613 4.56748ZM27.5833 9.49945C27.5833 7.88609 27.5857 6.5688 27.4408 5.54778C27.2919 4.49908 26.9658 3.58111 26.1688 2.90599L24.8761 4.43203C25.14 4.6556 25.3443 5.00894 25.4606 5.82883C25.5809 6.6764 25.5833 7.82498 25.5833 9.49945H27.5833ZM15.2613 3.28989C14.4885 3.4187 13.8173 3.52873 13.2853 3.68711C12.7265 3.85345 12.2042 4.10452 11.7943 4.58848L13.3203 5.88123C13.3843 5.80571 13.498 5.71051 13.8559 5.60396C14.2406 5.48944 14.7666 5.39993 15.5901 5.26268L15.2613 3.28989ZM13.0833 8.22186C13.0833 7.38701 13.0851 6.85344 13.1349 6.45518C13.1811 6.08463 13.2563 5.95676 13.3203 5.88123L11.7943 4.58848C11.3843 5.07245 11.2225 5.62891 11.1503 6.2074C11.0815 6.75819 11.0833 7.43837 11.0833 8.22186H13.0833Z" fill="#8D8D8D"/>
</svg>
